<svg width="24" height="25" viewBox="0 0 24 25" fill="none" xmlns="http://www.w3.org/2000/svg">
<path d="M6.99805 0.00134277C3.13905 0.00134277 0 3.1433 0 7.0033V17.0033C0 20.8623 3.14195 24.0013 7.00195 24.0013H17.002C20.861 24.0013 24 20.8594 24 16.9994V6.99939C24 3.14039 20.858 0.00134277 16.998 0.00134277H6.99805ZM19 4.00134C19.552 4.00134 20 4.44934 20 5.00134C20 5.55334 19.552 6.00134 19 6.00134C18.448 6.00134 18 5.55334 18 5.00134C18 4.44934 18.448 4.00134 19 4.00134ZM12 6.00134C15.309 6.00134 18 8.69234 18 12.0013C18 15.3103 15.309 18.0013 12 18.0013C8.691 18.0013 6 15.3103 6 12.0013C6 8.69234 8.691 6.00134 12 6.00134ZM12 8.00134C10.9391 8.00134 9.92172 8.42277 9.17157 9.17292C8.42143 9.92306 8 10.9405 8 12.0013C8 13.0622 8.42143 14.0796 9.17157 14.8298C9.92172 15.5799 10.9391 16.0013 12 16.0013C13.0609 16.0013 14.0783 15.5799 14.8284 14.8298C15.5786 14.0796 16 13.0622 16 12.0013C16 10.9405 15.5786 9.92306 14.8284 9.17292C14.0783 8.42277 13.0609 8.00134 12 8.00134V8.00134Z" fill="#111111"/>
</svg>
