<svg width="24" height="25" viewBox="0 0 24 25" fill="none" xmlns="http://www.w3.org/2000/svg">
<path d="M12 0.00134277C5.3833 0.00134277 0 5.38465 0 12.0013C0 18.618 5.3833 24.0013 12 24.0013C18.6172 24.0013 24 18.618 24 12.0013C24 5.38465 18.6172 0.00134277 12 0.00134277ZM17.2033 14.3674C18.3704 15.4036 18.613 15.7735 18.6527 15.8366C19.1363 16.6036 18.1163 16.697 18.1163 16.697H15.9668C15.9668 16.697 15.4435 16.7027 14.9963 16.4064C14.2675 15.929 13.5042 15.0034 12.9678 15.1641C12.5176 15.2987 12.5217 15.9071 12.5217 16.4273C12.5217 16.6135 12.3616 16.697 12 16.697C11.6384 16.697 11.4882 16.697 11.328 16.697C10.1504 16.697 8.8727 16.3005 7.59809 14.9685C5.79496 13.0855 4.21357 9.29247 4.21357 9.29247C4.21357 9.29247 4.12017 9.10152 4.22191 8.98517C4.33722 8.85473 4.65078 8.87143 4.65078 8.87143L6.73513 8.87091C6.73513 8.87091 6.9313 8.90795 7.07217 9.00708C7.18852 9.08847 7.25322 9.24395 7.25322 9.24395C7.25322 9.24395 7.6033 10.4001 8.04939 11.1373C8.9207 12.5763 9.32609 12.6128 9.62191 12.4579C10.0539 12.2335 9.91304 10.7038 9.91304 10.7038C9.91304 10.7038 9.93235 10.0469 9.70696 9.75421C9.53322 9.52778 9.20087 9.40726 9.05583 9.38847C8.93843 9.37334 9.13461 9.16778 9.38452 9.05039C9.71843 8.90169 10.1729 8.8636 10.9565 8.87091C11.5664 8.87665 11.7423 8.91317 11.9802 8.96795C12.6997 9.13386 12.5217 9.5716 12.5217 11.1086C12.5217 11.6012 12.4539 12.2935 12.8254 12.5231C12.9856 12.6222 13.5344 12.7433 14.5111 11.1572C14.975 10.4048 15.3438 9.15682 15.3438 9.15682C15.3438 9.15682 15.42 9.0196 15.5384 8.95178C15.6595 8.88239 15.6558 8.88395 15.8217 8.88395C15.9877 8.88395 17.6515 8.87091 18.0167 8.87091C18.3814 8.87091 18.7237 8.86673 18.7826 9.08065C18.8671 9.38795 18.5134 10.4408 17.617 11.5834C16.1442 13.4586 15.9809 13.2833 17.2033 14.3674Z" fill="#A2A2A2"/>
</svg>
